<?xml version="1.0" encoding="utf-8"?>
<!-- Generator: Adobe Illustrator 17.0.0, SVG Export Plug-In . SVG Version: 6.00 Build 0)  -->
<!DOCTYPE svg PUBLIC "-//W3C//DTD SVG 1.1//EN" "http://www.w3.org/Graphics/SVG/1.1/DTD/svg11.dtd">
<svg version="1.1" id="Layer_1" xmlns="http://www.w3.org/2000/svg" xmlns:xlink="http://www.w3.org/1999/xlink" x="0px" y="0px"
	 width="1200px" height="1200px" viewBox="0 0 1200 1200" enable-background="new 0 0 1200 1200" xml:space="preserve">
<g>
	<g>
		<polygon fill="#F8BDAC" points="556.117,792.314 487.026,529.389 459.205,601.639 50,601.639 50,568.759 436.624,568.759 
			492.945,422.435 566.194,701.07 688.533,463.956 736.884,573.496 1150,573.496 1150,606.407 715.402,606.407 686.2,540.148 		"/>
		<path fill="#E8394F" d="M1096.88,407.471c0,0-22.66-220.001-249.163-220.001c-226.424,0-252.334,155.265-252.334,155.265
			s-21.486-155.265-247.945-155.265c-226.468,0-249.116,220.001-249.116,220.001s-32.36,152.1,158.511,313.847l338.55,287.442v3.769
			l2.202-1.913l2.21,1.913l-0.019-3.769l338.558-287.442C1129.185,559.571,1096.88,407.471,1096.88,407.471z"/>
		<path fill="#005481" d="M1061.307,573.496H736.884l-48.352-109.54L566.194,701.07l-73.25-278.635l-56.321,146.324H131.529
			c5.422,10.687,11.437,21.597,18.597,32.88h309.079l27.821-72.249l69.091,262.925L686.2,540.148l29.202,66.259h326.617
			C1049.343,595.148,1055.729,584.206,1061.307,573.496z"/>
	</g>
</g>
</svg>
